<?xml version="1.0" encoding="UTF-8" standalone="no"?>
<svg viewBox="0 0 1024 1024" height="1024" width="1024" xmlns="http://www.w3.org/2000/svg">

	<circle fill="#003087" r="512" cy="512" cx="512"></circle>


	<polygon stroke-linejoin="round" stroke-width="60" stroke="#FFFFFF" fill="#00BFFF" points="362,362 412,312 612,312 662,362 662,562 612,612 412,612 362,562"></polygon>


	<rect fill="#FFFFFF" rx="4" height="40" width="28" y="280" x="380"></rect>
	<rect fill="#FFFFFF" rx="4" height="40" width="28" y="280" x="620"></rect>
	<rect fill="#FFFFFF" rx="4" height="40" width="28" y="700" x="380"></rect>
	<rect fill="#FFFFFF" rx="4" height="40" width="28" y="700" x="620"></rect>


	<rect stroke-width="40" stroke="#003087" fill="#F8F9FA" ry="20" rx="20" height="280" width="220" y="180" x="280"></rect>


	<rect fill="#003087" height="90" width="90" y="210" x="310"></rect>
	<rect fill="#FFFFFF" height="10" width="10" y="230" x="330"></rect>
	<rect fill="#FFFFFF" height="10" width="10" y="230" x="370"></rect>
	<rect fill="#FFFFFF" height="10" width="10" y="270" x="330"></rect>
	<rect fill="#FFFFFF" height="10" width="10" y="270" x="370"></rect>


	<rect fill="#003087" height="70" width="18" y="220" x="420"></rect>
	<rect fill="#003087" height="70" width="12" y="220" x="450"></rect>
	<rect fill="#003087" height="70" width="22" y="220" x="470"></rect>
	<rect fill="#003087" height="70" width="15" y="220" x="500"></rect>
	<rect fill="#003087" height="70" width="18" y="220" x="525"></rect>


	<text font-weight="900" fill="#003087" font-size="42" font-family="Arial Black" y="340" x="315">RFID</text>


	<rect fill="#1C2526" ry="25" rx="25" height="180" width="300" y="520" x="240"></rect>
	<rect fill="#00BFFF" ry="15" rx="15" height="80" width="240" y="560" x="270"></rect>


	<rect fill="#F8F9FA" ry="8" rx="8" height="35" width="160" y="630" x="310"></rect>


	<circle stroke-opacity="0.25" stroke-width="28" stroke="#00BFFF" fill="none" r="280" cy="512" cx="512"></circle>
	<circle stroke-opacity="0.18" stroke-width="22" stroke="#00BFFF" fill="none" r="340" cy="512" cx="512"></circle>
	<circle stroke-opacity="0.12" stroke-width="18" stroke="#00BFFF" fill="none" r="400" cy="512" cx="512"></circle>


	<text opacity="0.9" fill="#FFFFFF" font-size="68" font-family="Arial Black" y="180" x="680">GAB</text>
</svg>