<?xml version="1.0" encoding="UTF-8" standalone="no"?>
<!DOCTYPE svg PUBLIC "-//W3C//DTD SVG 1.1//EN" "http://www.w3.org/Graphics/SVG/1.1/DTD/svg11.dtd">
<svg viewBox="0 0 1024 1024" height="1024" width="1024" xmlns="http://www.w3.org/2000/svg">

	<polygon stroke-linejoin="round" stroke-width="60" stroke="#FFFFFF" fill="#00BFFF" points="362,362 412,312 612,312 662,362 662,562 612,612 412,612 362,562"></polygon>

	<rect stroke-width="40" stroke="#003087" fill="#F8F9FA" ry="20" rx="20" height="280" width="220" y="180" x="280"></rect>
	<rect fill="#003087" height="90" width="90" y="210" x="310"></rect>
	<rect fill="#FFFFFF" height="10" width="10" y="230" x="330"></rect>
	<rect fill="#FFFFFF" height="10" width="10" y="230" x="370"></rect>
	<rect fill="#FFFFFF" height="10" width="10" y="270" x="330"></rect>
	<rect fill="#FFFFFF" height="10" width="10" y="270" x="370"></rect>

	<rect fill="#003087" height="70" width="18" y="220" x="420"></rect>
	<rect fill="#003087" height="70" width="12" y="220" x="450"></rect>
	<rect fill="#003087" height="70" width="22" y="220" x="470"></rect>
	<rect fill="#003087" height="70" width="15" y="220" x="500"></rect>
	<rect fill="#003087" height="70" width="18" y="220" x="525"></rect>

	<text font-weight="900" fill="#003087" font-size="42" font-family="Arial Black" y="340" x="315">RFID</text>

	<circle stroke-opacity="0.4" stroke-width="28" stroke="#00BFFF" fill="none" r="280" cy="512" cx="512"></circle>
	<circle stroke-opacity="0.3" stroke-width="22" stroke="#00BFFF" fill="none" r="340" cy="512" cx="512"></circle>
</svg>
